<svg xmlns="http://www.w3.org/2000/svg" width="1200" height="420" viewBox="0 0 1200 420" role="img" aria-label="MetaKernel architecture overview">
<defs><linearGradient id="g" x1="0" x2="1"><stop stop-color="#0b1220"/><stop offset="1" stop-color="#111d31"/></linearGradient><filter id="s"><feDropShadow dx="0" dy="8" stdDeviation="10" flood-opacity=".18"/></filter></defs>
<rect width="1200" height="420" rx="28" fill="#071019"/>
<text x="60" y="66" fill="#f4f8fb" font-family="Inter,Segoe UI,sans-serif" font-size="28" font-weight="700">MetaKernel ecosystem</text>
<text x="60" y="96" fill="#8da5b8" font-family="Inter,Segoe UI,sans-serif" font-size="16">Provider-neutral infrastructure for governed systems</text>
<g filter="url(#s)" font-family="Inter,Segoe UI,sans-serif">
<rect x="60" y="145" width="240" height="120" rx="20" fill="url(#g)" stroke="#2f5f88"/><text x="180" y="196" text-anchor="middle" fill="#7ec2ff" font-size="22" font-weight="700">MetaKernel</text><text x="180" y="226" text-anchor="middle" fill="#c6d5df" font-size="14">contracts · governance · evidence</text>
<rect x="340" y="145" width="240" height="120" rx="20" fill="url(#g)" stroke="#2f5f88"/><text x="460" y="190" text-anchor="middle" fill="#7ec2ff" font-size="20" font-weight="700">Workspace Runtime</text><text x="460" y="220" text-anchor="middle" fill="#c6d5df" font-size="14">people · agents · resources · rooms</text><text x="460" y="241" text-anchor="middle" fill="#8da5b8" font-size="13">digital · physical · hybrid</text>
<rect x="620" y="145" width="240" height="120" rx="20" fill="url(#g)" stroke="#2f5f88"/><text x="740" y="190" text-anchor="middle" fill="#7ec2ff" font-size="20" font-weight="700">Domain Kernels</text><text x="740" y="220" text-anchor="middle" fill="#c6d5df" font-size="14">finance · health · trade · property</text><text x="740" y="241" text-anchor="middle" fill="#8da5b8" font-size="13">composable domain contracts</text>
<rect x="900" y="145" width="240" height="120" rx="20" fill="url(#g)" stroke="#2f5f88"/><text x="1020" y="190" text-anchor="middle" fill="#7ec2ff" font-size="20" font-weight="700">Products</text><text x="1020" y="220" text-anchor="middle" fill="#c6d5df" font-size="14">platforms · APIs · tools · apps</text><text x="1020" y="241" text-anchor="middle" fill="#8da5b8" font-size="13">hosted · sovereign · edge</text>
</g>
<g stroke="#5f8fb8" stroke-width="3" fill="none"><path d="M300 205H340"/><path d="M580 205H620"/><path d="M860 205H900"/></g>
<g fill="#5f8fb8"><path d="M334 198l10 7-10 7z"/><path d="M614 198l10 7-10 7z"/><path d="M894 198l10 7-10 7z"/></g>
<g font-family="Inter,Segoe UI,sans-serif" font-size="13"><rect x="120" y="312" width="190" height="46" rx="23" fill="#10263a" stroke="#214866"/><text x="215" y="340" text-anchor="middle" fill="#b9d5e9">authority &amp; policy</text><rect x="355" y="312" width="190" height="46" rx="23" fill="#10263a" stroke="#214866"/><text x="450" y="340" text-anchor="middle" fill="#b9d5e9">evidence &amp; provenance</text><rect x="590" y="312" width="190" height="46" rx="23" fill="#10263a" stroke="#214866"/><text x="685" y="340" text-anchor="middle" fill="#b9d5e9">provider-neutral ports</text><rect x="825" y="312" width="190" height="46" rx="23" fill="#10263a" stroke="#214866"/><text x="920" y="340" text-anchor="middle" fill="#b9d5e9">portable deployment</text></g>
</svg>